<svg xmlns="http://www.w3.org/2000/svg" style="display: none;"><symbol id="facebook-logo" viewBox="0 0 96.124 96.123"><title>facebook-logo</title><path d="M72.089,0.02L59.624,0C45.62,0,36.57,9.285,36.57,23.656v10.907H24.037c-1.083,0-1.96,0.878-1.96,1.961v15.803 c0,1.083,0.878,1.96,1.96,1.96h12.533v39.876c0,1.083,0.877,1.96,1.96,1.96h16.352c1.083,0,1.96-0.878,1.96-1.96V54.287h14.654 c1.083,0,1.96-0.877,1.96-1.96l0.006-15.803c0-0.52-0.207-1.018-0.574-1.386c-0.367-0.368-0.867-0.575-1.387-0.575H56.842v-9.246 c0-4.444,1.059-6.7,6.848-6.7l8.397-0.003c1.082,0,1.959-0.878,1.959-1.96V1.98C74.046,0.899,73.17,0.022,72.089,0.02z"/></symbol><symbol id="mail" viewBox="0 0 550.795 550.795"><title>mail</title><path d="M501.613,491.782c12.381,0,23.109-4.088,32.229-12.16L377.793,323.567c-3.744,2.681-7.373,5.288-10.801,7.767 c-11.678,8.604-21.156,15.318-28.434,20.129c-7.277,4.822-16.959,9.737-29.045,14.755c-12.094,5.024-23.361,7.528-33.813,7.528 h-0.306h-0.306c-10.453,0-21.72-2.503-33.813-7.528c-12.093-5.018-21.775-9.933-29.045-14.755 c-7.277-4.811-16.75-11.524-28.434-20.129c-3.256-2.387-6.867-5.006-10.771-7.809L16.946,479.622 c9.119,8.072,19.854,12.16,32.234,12.16H501.613z"/><path d="M31.047,225.299C19.37,217.514,9.015,208.598,0,198.555V435.98l137.541-137.541 C110.025,279.229,74.572,254.877,31.047,225.299z"/><path d="M520.059,225.299c-41.865,28.336-77.447,52.73-106.75,73.195l137.486,137.492V198.555 C541.98,208.396,531.736,217.306,520.059,225.299z"/><path d="M501.613,59.013H49.181c-15.784,0-27.919,5.33-36.42,15.979C4.253,85.646,0.006,98.97,0.006,114.949 c0,12.907,5.636,26.892,16.903,41.959c11.267,15.061,23.256,26.891,35.961,35.496c6.965,4.921,27.969,19.523,63.012,43.801 c18.917,13.109,35.368,24.535,49.505,34.395c12.05,8.396,22.442,15.667,31.022,21.701c0.985,0.691,2.534,1.799,4.59,3.269 c2.215,1.591,5.018,3.61,8.476,6.107c6.659,4.816,12.191,8.709,16.597,11.683c4.4,2.975,9.731,6.298,15.985,9.988 c6.249,3.685,12.143,6.456,17.675,8.299c5.533,1.842,10.655,2.766,15.367,2.766h0.306h0.306c4.711,0,9.834-0.924,15.368-2.766 c5.531-1.843,11.42-4.608,17.674-8.299c6.248-3.69,11.572-7.02,15.986-9.988c4.406-2.974,9.938-6.866,16.598-11.683 c3.451-2.497,6.254-4.517,8.469-6.102c2.057-1.476,3.605-2.577,4.596-3.274c6.684-4.651,17.1-11.892,31.104-21.616 c25.482-17.705,63.01-43.764,112.742-78.281c14.957-10.447,27.453-23.054,37.496-37.803c10.025-14.749,15.051-30.22,15.051-46.408 c0-13.525-4.873-25.098-14.598-34.737C526.461,63.829,514.932,59.013,501.613,59.013z"/></symbol><symbol id="internet" viewBox="0 0 402.041 402.04"><title>internet</title><path d="M54.816,292.382c-15.229,0-28.169,5.331-38.831,15.988C5.33,319.026,0,331.969,0,347.197 c0,15.232,5.325,28.172,15.985,38.828c10.662,10.657,23.606,15.988,38.831,15.988c15.227,0,28.168-5.331,38.828-15.988 c10.656-10.656,15.986-23.596,15.986-38.828c0-15.229-5.33-28.171-15.986-38.827C82.987,297.713,70.046,292.382,54.816,292.382z"/><path d="M181.01,221.002c-21.51-21.698-46.158-38.97-73.948-51.816c-27.79-12.85-56.914-20.511-87.366-22.985h-1.425 c-4.949,0-9.042,1.619-12.275,4.854C1.997,154.477,0,158.953,0,164.472v38.543c0,4.757,1.569,8.85,4.708,12.279 c3.14,3.429,7.089,5.332,11.848,5.708c43.586,4.189,80.845,21.752,111.773,52.678c30.93,30.926,48.49,68.187,52.677,111.771 c0.382,4.764,2.284,8.712,5.712,11.847c3.427,3.148,7.517,4.72,12.275,4.72h38.545c5.517,0,9.989-1.995,13.415-5.996 c3.621-3.812,5.236-8.381,4.863-13.709c-2.478-30.447-10.14-59.573-22.987-87.361C219.983,267.16,202.708,242.514,181.01,221.002z "/><path d="M367.728,239.701c-20.365-45.585-48.345-86.078-83.936-121.482c-35.405-35.594-75.896-63.572-121.485-83.939 C116.723,13.917,68.996,2.494,19.126,0.02h-0.855c-4.949,0-9.136,1.713-12.563,5.14C1.903,8.583,0,12.964,0,18.294v40.825 c0,4.76,1.667,8.897,4.996,12.419c3.33,3.523,7.373,5.376,12.132,5.57c40.924,2.478,79.799,12.188,116.63,29.127 c36.83,16.94,68.806,38.972,95.93,66.09c27.118,27.123,49.149,59.101,66.089,95.931c16.94,36.836,26.557,75.705,28.839,116.627 c0.195,4.764,2.046,8.809,5.564,12.139c3.524,3.329,7.762,4.999,12.71,4.999h40.823c5.331,0,9.701-1.902,13.134-5.715 c3.809-3.806,5.517-8.274,5.144-13.415C399.52,333.017,388.093,285.291,367.728,239.701z"/></symbol><symbol id="twitter-black-shape" viewBox="0 0 449.956 449.956"><title>twitter-black-shape</title><path d="M449.956,85.657c-17.702,7.614-35.408,12.369-53.102,14.279c19.985-11.991,33.503-28.931,40.546-50.819 c-18.281,10.847-37.787,18.268-58.532,22.267c-18.274-19.414-40.73-29.125-67.383-29.125c-25.502,0-47.246,8.992-65.24,26.98 c-17.984,17.987-26.977,39.731-26.977,65.235c0,6.851,0.76,13.896,2.284,21.128c-37.688-1.903-73.042-11.372-106.068-28.407 C82.46,110.158,54.433,87.46,31.403,59.101c-8.375,14.272-12.564,29.787-12.564,46.536c0,15.798,3.711,30.456,11.138,43.97 c7.422,13.512,17.417,24.455,29.98,32.831c-14.849-0.572-28.743-4.475-41.684-11.708v1.142c0,22.271,6.995,41.824,20.983,58.674 c13.99,16.848,31.645,27.453,52.961,31.833c-7.995,2.091-16.086,3.138-24.269,3.138c-5.33,0-11.136-0.475-17.416-1.42 c5.9,18.459,16.75,33.633,32.546,45.535c15.799,11.896,33.691,18.028,53.677,18.418c-33.498,26.262-71.66,39.393-114.486,39.393 c-8.186,0-15.607-0.373-22.27-1.139c42.827,27.596,90.03,41.394,141.612,41.394c32.738,0,63.478-5.181,92.21-15.557 c28.746-10.369,53.297-24.267,73.665-41.686c20.362-17.415,37.925-37.448,52.674-60.097c14.75-22.651,25.738-46.298,32.977-70.946 c7.23-24.653,10.848-49.344,10.848-74.092c0-5.33-0.096-9.325-0.287-11.991C421.785,120.202,437.202,104.306,449.956,85.657z"/></symbol></svg>